<svg xmlns="http://www.w3.org/2000/svg" viewBox="0 0 480 270" role="img" aria-label="부산 지하철 데이터랩 대표 이미지">
  <rect width="480" height="270" fill="#E5F5F3"/>
  <!-- 1호선 -->
  <path d="M30,80 Q120,60 200,100 Q280,140 360,120 Q420,110 460,130" stroke="#176B63" stroke-width="5" fill="none" stroke-linecap="round"/>
  <!-- 2호선 -->
  <path d="M30,160 Q100,145 180,165 Q260,185 340,155 Q400,135 460,155" stroke="#9DD4CC" stroke-width="5" fill="none" stroke-linecap="round"/>
  <!-- 역 점 (1호선) -->
  <circle cx="30"  cy="80"  r="6" fill="#fff" stroke="#176B63" stroke-width="3"/>
  <circle cx="100" cy="72"  r="6" fill="#fff" stroke="#176B63" stroke-width="3"/>
  <circle cx="180" cy="97"  r="8" fill="#176B63"/>
  <circle cx="260" cy="128" r="6" fill="#fff" stroke="#176B63" stroke-width="3"/>
  <circle cx="340" cy="118" r="6" fill="#fff" stroke="#176B63" stroke-width="3"/>
  <circle cx="420" cy="114" r="6" fill="#fff" stroke="#176B63" stroke-width="3"/>
  <circle cx="460" cy="130" r="6" fill="#fff" stroke="#176B63" stroke-width="3"/>
  <!-- 역 점 (2호선) -->
  <circle cx="30"  cy="160" r="6" fill="#fff" stroke="#9DD4CC" stroke-width="3"/>
  <circle cx="110" cy="148" r="6" fill="#fff" stroke="#9DD4CC" stroke-width="3"/>
  <circle cx="200" cy="168" r="8" fill="#9DD4CC"/>
  <circle cx="280" cy="178" r="6" fill="#fff" stroke="#9DD4CC" stroke-width="3"/>
  <circle cx="360" cy="152" r="6" fill="#fff" stroke="#9DD4CC" stroke-width="3"/>
  <circle cx="440" cy="150" r="6" fill="#fff" stroke="#9DD4CC" stroke-width="3"/>
  <!-- 환승역 -->
  <circle cx="180" cy="97"  r="4" fill="#fff"/>
  <circle cx="200" cy="168" r="4" fill="#fff"/>
  <!-- 범례 -->
  <rect x="18" y="220" width="16" height="4" rx="2" fill="#176B63"/>
  <text x="40" y="228" font-family="sans-serif" font-size="11" fill="#0f4f49">1호선</text>
  <rect x="90" y="220" width="16" height="4" rx="2" fill="#9DD4CC"/>
  <text x="112" y="228" font-family="sans-serif" font-size="11" fill="#0f4f49">2호선</text>
  <!-- 하단 라벨 -->
  <rect y="242" width="480" height="28" fill="rgba(255,255,255,.7)"/>
  <text x="240" y="261" text-anchor="middle" font-family="sans-serif" font-size="13" fill="#0f4f49" font-weight="700">역별 승하차 · 시간대별 이용 패턴 탐색</text>
</svg>
